<?xml version="1.0" encoding="UTF-8" standalone="no"?>
<!DOCTYPE svg PUBLIC "-//W3C//DTD SVG 1.1//EN"
 "http://www.w3.org/Graphics/SVG/1.1/DTD/svg11.dtd">
<!-- Generated by graphviz version 2.38.0 (20140413.2041)
 -->
<!-- Title: controllers_diagram Pages: 1 -->
<svg width="781pt" height="516pt"
 viewBox="0.00 0.00 781.20 515.71" xmlns="http://www.w3.org/2000/svg" xmlns:xlink="http://www.w3.org/1999/xlink">
<g id="graph0" class="graph" transform="scale(1 1) rotate(0) translate(348.2 297)">
<title>controllers_diagram</title>
<polygon fill="none" stroke="none" points="-348.2,218.706 -348.2,-297 433,-297 433,218.706 -348.2,218.706"/>
<!-- _diagram_info -->
<g id="node1" class="node"><title>_diagram_info</title>
<text text-anchor="start" x="223" y="-278.6" font-family="Times,serif" font-size="13.00">Controllers diagram</text>
<text text-anchor="start" x="223" y="-264.6" font-family="Times,serif" font-size="13.00">Date: May 05 2017 &#45; 01:37</text>
<text text-anchor="start" x="223" y="-250.6" font-family="Times,serif" font-size="13.00">Migration version: 20170503161151</text>
<text text-anchor="start" x="223" y="-236.6" font-family="Times,serif" font-size="13.00">Generated by RailRoady 1.5.2</text>
<text text-anchor="start" x="223" y="-222.6" font-family="Times,serif" font-size="13.00">http://railroady.prestonlee.com</text>
</g>
<!-- RoutesController -->
<g id="node2" class="node"><title>RoutesController</title>
<path fill="none" stroke="black" d="M-332.2,28.6923C-332.2,28.6923 -246.2,28.6923 -246.2,28.6923 -240.2,28.6923 -234.2,22.6923 -234.2,16.6923 -234.2,16.6923 -234.2,-53.3077 -234.2,-53.3077 -234.2,-59.3077 -240.2,-65.3077 -246.2,-65.3077 -246.2,-65.3077 -332.2,-65.3077 -332.2,-65.3077 -338.2,-65.3077 -344.2,-59.3077 -344.2,-53.3077 -344.2,-53.3077 -344.2,16.6923 -344.2,16.6923 -344.2,22.6923 -338.2,28.6923 -332.2,28.6923"/>
<text text-anchor="middle" x="-289.2" y="-50.1077" font-family="Times,serif" font-size="14.00">RoutesController</text>
<polyline fill="none" stroke="black" points="-344.2,-42.3077 -234.2,-42.3077 "/>
<text text-anchor="start" x="-336.2" y="-27.1077" font-family="Times,serif" font-size="14.00">index</text>
<polyline fill="none" stroke="black" points="-344.2,-19.3077 -234.2,-19.3077 "/>
<polyline fill="none" stroke="black" points="-344.2,4.69232 -234.2,4.69232 "/>
</g>
<!-- Api::V1::VotingsController -->
<g id="node3" class="node"><title>Api::V1::VotingsController</title>
<path fill="none" stroke="black" d="M146.265,-49.5036C146.265,-49.5036 289.265,-49.5036 289.265,-49.5036 295.265,-49.5036 301.265,-55.5036 301.265,-61.5036 301.265,-61.5036 301.265,-145.504 301.265,-145.504 301.265,-151.504 295.265,-157.504 289.265,-157.504 289.265,-157.504 146.265,-157.504 146.265,-157.504 140.265,-157.504 134.265,-151.504 134.265,-145.504 134.265,-145.504 134.265,-61.5036 134.265,-61.5036 134.265,-55.5036 140.265,-49.5036 146.265,-49.5036"/>
<text text-anchor="middle" x="217.765" y="-142.304" font-family="Times,serif" font-size="14.00">Api::V1::VotingsController</text>
<polyline fill="none" stroke="black" points="134.265,-134.504 301.265,-134.504 "/>
<text text-anchor="start" x="142.265" y="-119.304" font-family="Times,serif" font-size="14.00">index</text>
<text text-anchor="start" x="142.265" y="-104.304" font-family="Times,serif" font-size="14.00">show</text>
<polyline fill="none" stroke="black" points="134.265,-96.5036 301.265,-96.5036 "/>
<polyline fill="none" stroke="black" points="134.265,-72.5036 301.265,-72.5036 "/>
<text text-anchor="start" x="142.265" y="-57.3036" font-family="Times,serif" font-size="14.00">set_voting</text>
</g>
<!-- Api::V1::VotingRowsController -->
<g id="node4" class="node"><title>Api::V1::VotingRowsController</title>
<path fill="none" stroke="black" d="M-88.9889,214.206C-88.9889,214.206 79.0111,214.206 79.0111,214.206 85.0111,214.206 91.0111,208.206 91.0111,202.206 91.0111,202.206 91.0111,118.206 91.0111,118.206 91.0111,112.206 85.0111,106.206 79.0111,106.206 79.0111,106.206 -88.9889,106.206 -88.9889,106.206 -94.9889,106.206 -100.989,112.206 -100.989,118.206 -100.989,118.206 -100.989,202.206 -100.989,202.206 -100.989,208.206 -94.9889,214.206 -88.9889,214.206"/>
<text text-anchor="middle" x="-4.98889" y="121.406" font-family="Times,serif" font-size="14.00">Api::V1::VotingRowsController</text>
<polyline fill="none" stroke="black" points="-100.989,129.206 91.0111,129.206 "/>
<text text-anchor="start" x="-92.9889" y="144.406" font-family="Times,serif" font-size="14.00">index</text>
<text text-anchor="start" x="-92.9889" y="159.406" font-family="Times,serif" font-size="14.00">show</text>
<polyline fill="none" stroke="black" points="-100.989,167.206 91.0111,167.206 "/>
<polyline fill="none" stroke="black" points="-100.989,191.206 91.0111,191.206 "/>
<text text-anchor="start" x="-92.9889" y="206.406" font-family="Times,serif" font-size="14.00">set_voting_row</text>
</g>
<!-- Api::V1::ZonesController -->
<g id="node5" class="node"><title>Api::V1::ZonesController</title>
<path fill="none" stroke="black" d="M-58.7452,-89.4151C-58.7452,-89.4151 74.2548,-89.4151 74.2548,-89.4151 80.2548,-89.4151 86.2548,-95.4151 86.2548,-101.415 86.2548,-101.415 86.2548,-171.415 86.2548,-171.415 86.2548,-177.415 80.2548,-183.415 74.2548,-183.415 74.2548,-183.415 -58.7452,-183.415 -58.7452,-183.415 -64.7452,-183.415 -70.7452,-177.415 -70.7452,-171.415 -70.7452,-171.415 -70.7452,-101.415 -70.7452,-101.415 -70.7452,-95.4151 -64.7452,-89.4151 -58.7452,-89.4151"/>
<text text-anchor="middle" x="7.75477" y="-168.215" font-family="Times,serif" font-size="14.00">Api::V1::ZonesController</text>
<polyline fill="none" stroke="black" points="-70.7452,-160.415 86.2548,-160.415 "/>
<text text-anchor="start" x="-62.7452" y="-145.215" font-family="Times,serif" font-size="14.00">index</text>
<polyline fill="none" stroke="black" points="-70.7452,-137.415 86.2548,-137.415 "/>
<polyline fill="none" stroke="black" points="-70.7452,-113.415 86.2548,-113.415 "/>
</g>
<!-- Api::V1::ApiController -->
<g id="node6" class="node"><title>Api::V1::ApiController</title>
<path fill="none" stroke="black" d="M14.2592,60.444C14.2592,60.444 134.259,60.444 134.259,60.444 140.259,60.444 146.259,54.444 146.259,48.444 146.259,48.444 146.259,-22.556 146.259,-22.556 146.259,-28.556 140.259,-34.556 134.259,-34.556 134.259,-34.556 14.2592,-34.556 14.2592,-34.556 8.25923,-34.556 2.25923,-28.556 2.25923,-22.556 2.25923,-22.556 2.25923,48.444 2.25923,48.444 2.25923,54.444 8.25923,60.444 14.2592,60.444"/>
<text text-anchor="middle" x="74.2592" y="-19.356" font-family="Times,serif" font-size="14.00">Api::V1::ApiController</text>
<polyline fill="none" stroke="black" points="2.25923,-11.556 146.259,-11.556 "/>
<polyline fill="none" stroke="black" points="2.25923,12.444 146.259,12.444 "/>
<polyline fill="none" stroke="black" points="2.25923,36.444 146.259,36.444 "/>
</g>
<!-- Api::V1::ApiController&#45;&gt;Api::V1::VotingsController -->
<g id="edge2" class="edge"><title>Api::V1::ApiController&#45;&gt;Api::V1::VotingsController</title>
<path fill="none" stroke="black" d="M133.043,-34.7557C138.925,-39.5292 144.929,-44.4004 150.887,-49.235"/>
</g>
<!-- Api::V1::ApiController&#45;&gt;Api::V1::VotingRowsController -->
<g id="edge3" class="edge"><title>Api::V1::ApiController&#45;&gt;Api::V1::VotingRowsController</title>
<path fill="none" stroke="black" d="M48.5296,60.7556C40.7561,75.2007 32.1656,91.1639 24.1843,105.995"/>
</g>
<!-- Api::V1::ApiController&#45;&gt;Api::V1::ZonesController -->
<g id="edge4" class="edge"><title>Api::V1::ApiController&#45;&gt;Api::V1::ZonesController</title>
<path fill="none" stroke="black" d="M53.034,-34.7248C45.2792,-52.1409 36.5158,-71.8221 28.7786,-89.1986"/>
</g>
<!-- Api::V1::VotingResultsController -->
<g id="node7" class="node"><title>Api::V1::VotingResultsController</title>
<path fill="none" stroke="black" d="M-302.906,-90.8142C-302.906,-90.8142 -125.906,-90.8142 -125.906,-90.8142 -119.906,-90.8142 -113.906,-96.8142 -113.906,-102.814 -113.906,-102.814 -113.906,-186.814 -113.906,-186.814 -113.906,-192.814 -119.906,-198.814 -125.906,-198.814 -125.906,-198.814 -302.906,-198.814 -302.906,-198.814 -308.906,-198.814 -314.906,-192.814 -314.906,-186.814 -314.906,-186.814 -314.906,-102.814 -314.906,-102.814 -314.906,-96.8142 -308.906,-90.8142 -302.906,-90.8142"/>
<text text-anchor="middle" x="-214.406" y="-183.614" font-family="Times,serif" font-size="14.00">Api::V1::VotingResultsController</text>
<polyline fill="none" stroke="black" points="-314.906,-175.814 -113.906,-175.814 "/>
<text text-anchor="start" x="-306.906" y="-160.614" font-family="Times,serif" font-size="14.00">index</text>
<text text-anchor="start" x="-306.906" y="-145.614" font-family="Times,serif" font-size="14.00">show</text>
<polyline fill="none" stroke="black" points="-314.906,-137.814 -113.906,-137.814 "/>
<polyline fill="none" stroke="black" points="-314.906,-113.814 -113.906,-113.814 "/>
<text text-anchor="start" x="-306.906" y="-98.6142" font-family="Times,serif" font-size="14.00">set_voting_result</text>
</g>
<!-- Api::V1::ApiController&#45;&gt;Api::V1::VotingResultsController -->
<g id="edge6" class="edge"><title>Api::V1::ApiController&#45;&gt;Api::V1::VotingResultsController</title>
<path fill="none" stroke="black" d="M2.16136,-26.4581C-33.4083,-45.8972 -76.864,-69.6462 -115.488,-90.7547"/>
</g>
<!-- Api::V1::DeputiesController -->
<g id="node8" class="node"><title>Api::V1::DeputiesController</title>
<path fill="none" stroke="black" d="M-316.064,205.498C-316.064,205.498 -168.064,205.498 -168.064,205.498 -162.064,205.498 -156.064,199.498 -156.064,193.498 -156.064,193.498 -156.064,109.498 -156.064,109.498 -156.064,103.498 -162.064,97.498 -168.064,97.498 -168.064,97.498 -316.064,97.498 -316.064,97.498 -322.064,97.498 -328.064,103.498 -328.064,109.498 -328.064,109.498 -328.064,193.498 -328.064,193.498 -328.064,199.498 -322.064,205.498 -316.064,205.498"/>
<text text-anchor="middle" x="-242.064" y="112.698" font-family="Times,serif" font-size="14.00">Api::V1::DeputiesController</text>
<polyline fill="none" stroke="black" points="-328.064,120.498 -156.064,120.498 "/>
<text text-anchor="start" x="-320.064" y="135.698" font-family="Times,serif" font-size="14.00">index</text>
<text text-anchor="start" x="-320.064" y="150.698" font-family="Times,serif" font-size="14.00">show</text>
<polyline fill="none" stroke="black" points="-328.064,158.498 -156.064,158.498 "/>
<polyline fill="none" stroke="black" points="-328.064,182.498 -156.064,182.498 "/>
<text text-anchor="start" x="-320.064" y="197.698" font-family="Times,serif" font-size="14.00">set_deputy</text>
</g>
<!-- Api::V1::ApiController&#45;&gt;Api::V1::DeputiesController -->
<g id="edge7" class="edge"><title>Api::V1::ApiController&#45;&gt;Api::V1::DeputiesController</title>
<path fill="none" stroke="black" d="M2.14817,47.8732C-10.6538,53.8972 -23.8989,60.0166 -36.4334,65.6123 -75.3826,83.0002 -118.922,101.341 -155.875,116.588"/>
</g>
<!-- Api::V1::VotingSummariesController -->
<g id="node9" class="node"><title>Api::V1::VotingSummariesController</title>
<path fill="none" stroke="black" d="M115.298,179.974C115.298,179.974 315.298,179.974 315.298,179.974 321.298,179.974 327.298,173.974 327.298,167.974 327.298,167.974 327.298,83.9745 327.298,83.9745 327.298,77.9745 321.298,71.9745 315.298,71.9745 315.298,71.9745 115.298,71.9745 115.298,71.9745 109.298,71.9745 103.298,77.9745 103.298,83.9745 103.298,83.9745 103.298,167.974 103.298,167.974 103.298,173.974 109.298,179.974 115.298,179.974"/>
<text text-anchor="middle" x="215.298" y="87.1745" font-family="Times,serif" font-size="14.00">Api::V1::VotingSummariesController</text>
<polyline fill="none" stroke="black" points="103.298,94.9745 327.298,94.9745 "/>
<text text-anchor="start" x="111.298" y="110.174" font-family="Times,serif" font-size="14.00">index</text>
<text text-anchor="start" x="111.298" y="125.174" font-family="Times,serif" font-size="14.00">show</text>
<polyline fill="none" stroke="black" points="103.298,132.974 327.298,132.974 "/>
<polyline fill="none" stroke="black" points="103.298,156.974 327.298,156.974 "/>
<text text-anchor="start" x="111.298" y="172.174" font-family="Times,serif" font-size="14.00">set_voting_summary</text>
</g>
<!-- Api::V1::ApiController&#45;&gt;Api::V1::VotingSummariesController -->
<g id="edge8" class="edge"><title>Api::V1::ApiController&#45;&gt;Api::V1::VotingSummariesController</title>
<path fill="none" stroke="black" d="M133.663,60.5515C138.331,64.2921 143.065,68.0862 147.781,71.8659"/>
</g>
<!-- ApplicationController -->
<g id="node10" class="node"><title>ApplicationController</title>
<path fill="none" stroke="black" d="M-163.633,62.4123C-163.633,62.4123 -51.6334,62.4123 -51.6334,62.4123 -45.6334,62.4123 -39.6334,56.4123 -39.6334,50.4123 -39.6334,50.4123 -39.6334,-20.5877 -39.6334,-20.5877 -39.6334,-26.5877 -45.6334,-32.5877 -51.6334,-32.5877 -51.6334,-32.5877 -163.633,-32.5877 -163.633,-32.5877 -169.633,-32.5877 -175.633,-26.5877 -175.633,-20.5877 -175.633,-20.5877 -175.633,50.4123 -175.633,50.4123 -175.633,56.4123 -169.633,62.4123 -163.633,62.4123"/>
<text text-anchor="middle" x="-107.633" y="-17.3877" font-family="Times,serif" font-size="14.00">ApplicationController</text>
<polyline fill="none" stroke="black" points="-175.633,-9.58765 -39.6334,-9.58765 "/>
<polyline fill="none" stroke="black" points="-175.633,14.4123 -39.6334,14.4123 "/>
<polyline fill="none" stroke="black" points="-175.633,38.4123 -39.6334,38.4123 "/>
</g>
<!-- ApplicationController&#45;&gt;RoutesController -->
<g id="edge1" class="edge"><title>ApplicationController&#45;&gt;RoutesController</title>
<path fill="none" stroke="black" d="M-175.759,2.44792C-194.978,-1.06854 -215.645,-4.84982 -234.005,-8.20898"/>
</g>
<!-- ApplicationController&#45;&gt;Api::V1::ApiController -->
<g id="edge5" class="edge"><title>ApplicationController&#45;&gt;Api::V1::ApiController</title>
<path fill="none" stroke="black" d="M-39.3858,14.1738C-25.8778,14.0276 -11.656,13.8737 1.98057,13.7261"/>
</g>
</g>
</svg>
