<?xml version="1.0" encoding="UTF-8" standalone="no"?>
<!DOCTYPE svg PUBLIC "-//W3C//DTD SVG 1.1//EN"
 "http://www.w3.org/Graphics/SVG/1.1/DTD/svg11.dtd">
<!-- Generated by graphviz version 2.38.0 (20140413.2041)
 -->
<!-- Title: models_diagram Pages: 1 -->
<svg width="521pt" height="680pt"
 viewBox="0.00 0.00 520.73 680.00" xmlns="http://www.w3.org/2000/svg" xmlns:xlink="http://www.w3.org/1999/xlink">
<g id="graph0" class="graph" transform="scale(1 1) rotate(0) translate(4 676)">
<title>models_diagram</title>
<polygon fill="none" stroke="none" points="-4,4 -4,-676 516.727,-676 516.727,4 -4,4"/>
<!-- _diagram_info -->
<g id="node1" class="node"><title>_diagram_info</title>
<text text-anchor="start" x="8" y="-657.6" font-family="Times,serif" font-size="13.00">Models diagram</text>
<text text-anchor="start" x="8" y="-643.6" font-family="Times,serif" font-size="13.00">Date: May 05 2017 &#45; 01:37</text>
<text text-anchor="start" x="8" y="-629.6" font-family="Times,serif" font-size="13.00">Migration version: 20170503161151</text>
<text text-anchor="start" x="8" y="-615.6" font-family="Times,serif" font-size="13.00">Generated by RailRoady 1.5.2</text>
<text text-anchor="start" x="8" y="-601.6" font-family="Times,serif" font-size="13.00">http://railroady.prestonlee.com</text>
</g>
<!-- Voting -->
<g id="node2" class="node"><title>Voting</title>
<path fill="none" stroke="black" d="M62,-158.5C62,-158.5 210,-158.5 210,-158.5 216,-158.5 222,-164.5 222,-170.5 222,-170.5 222,-417.5 222,-417.5 222,-423.5 216,-429.5 210,-429.5 210,-429.5 62,-429.5 62,-429.5 56,-429.5 50,-423.5 50,-417.5 50,-417.5 50,-170.5 50,-170.5 50,-164.5 56,-158.5 62,-158.5"/>
<text text-anchor="middle" x="136" y="-414.3" font-family="Times,serif" font-size="14.00">Voting</text>
<polyline fill="none" stroke="black" points="50,-406.5 222,-406.5 "/>
<text text-anchor="start" x="58" y="-391.3" font-family="Times,serif" font-size="14.00">id :INTEGER</text>
<text text-anchor="start" x="58" y="-376.3" font-family="Times,serif" font-size="14.00">program_name :varchar</text>
<text text-anchor="start" x="58" y="-361.3" font-family="Times,serif" font-size="14.00">department_name :varchar</text>
<text text-anchor="start" x="58" y="-346.3" font-family="Times,serif" font-size="14.00">session :varchar</text>
<text text-anchor="start" x="58" y="-331.3" font-family="Times,serif" font-size="14.00">number :varchar</text>
<text text-anchor="start" x="58" y="-316.3" font-family="Times,serif" font-size="14.00">date :datetime</text>
<text text-anchor="start" x="58" y="-301.3" font-family="Times,serif" font-size="14.00">title :varchar</text>
<text text-anchor="start" x="58" y="-286.3" font-family="Times,serif" font-size="14.00">content :text</text>
<text text-anchor="start" x="58" y="-271.3" font-family="Times,serif" font-size="14.00">summary_yea :integer</text>
<text text-anchor="start" x="58" y="-256.3" font-family="Times,serif" font-size="14.00">summary_nay :integer</text>
<text text-anchor="start" x="58" y="-241.3" font-family="Times,serif" font-size="14.00">summary_abstained :integer</text>
<text text-anchor="start" x="58" y="-226.3" font-family="Times,serif" font-size="14.00">not_voted :integer</text>
<text text-anchor="start" x="58" y="-211.3" font-family="Times,serif" font-size="14.00">absent :integer</text>
<text text-anchor="start" x="58" y="-196.3" font-family="Times,serif" font-size="14.00">voting_summary_id :integer</text>
<text text-anchor="start" x="58" y="-181.3" font-family="Times,serif" font-size="14.00">created_at :datetime</text>
<text text-anchor="start" x="58" y="-166.3" font-family="Times,serif" font-size="14.00">updated_at :datetime</text>
</g>
<!-- VotingRow -->
<g id="node7" class="node"><title>VotingRow</title>
<path fill="none" stroke="black" d="M294,-0.5C294,-0.5 420,-0.5 420,-0.5 426,-0.5 432,-6.5 432,-12.5 432,-12.5 432,-109.5 432,-109.5 432,-115.5 426,-121.5 420,-121.5 420,-121.5 294,-121.5 294,-121.5 288,-121.5 282,-115.5 282,-109.5 282,-109.5 282,-12.5 282,-12.5 282,-6.5 288,-0.5 294,-0.5"/>
<text text-anchor="middle" x="357" y="-106.3" font-family="Times,serif" font-size="14.00">VotingRow</text>
<polyline fill="none" stroke="black" points="282,-98.5 432,-98.5 "/>
<text text-anchor="start" x="290" y="-83.3" font-family="Times,serif" font-size="14.00">id :INTEGER</text>
<text text-anchor="start" x="290" y="-68.3" font-family="Times,serif" font-size="14.00">voting_id :integer</text>
<text text-anchor="start" x="290" y="-53.3" font-family="Times,serif" font-size="14.00">deputy_id :integer</text>
<text text-anchor="start" x="290" y="-38.3" font-family="Times,serif" font-size="14.00">voting_result_id :integer</text>
<text text-anchor="start" x="290" y="-23.3" font-family="Times,serif" font-size="14.00">created_at :datetime</text>
<text text-anchor="start" x="290" y="-8.3" font-family="Times,serif" font-size="14.00">updated_at :datetime</text>
</g>
<!-- Voting&#45;&gt;VotingRow -->
<g id="edge1" class="edge"><title>Voting&#45;&gt;VotingRow</title>
<path fill="none" stroke="#750c12" d="M227.656,-161.525C228.767,-160.337 229.882,-159.161 231,-158 243.875,-144.628 258.721,-131.633 273.602,-119.747"/>
<ellipse fill="none" stroke="#750c12" cx="224.831" cy="-164.617" rx="4.00002" ry="4.00002"/>
<polygon fill="#750c12" stroke="#750c12" points="273.996,-119.437 284.64,-116.801 277.928,-116.35 281.861,-113.262 281.861,-113.262 281.861,-113.262 277.928,-116.35 279.082,-109.722 273.996,-119.437 273.996,-119.437"/>
</g>
<!-- VotingResult -->
<g id="node3" class="node"><title>VotingResult</title>
<path fill="none" stroke="black" d="M252.5,-241C252.5,-241 365.5,-241 365.5,-241 371.5,-241 377.5,-247 377.5,-253 377.5,-253 377.5,-335 377.5,-335 377.5,-341 371.5,-347 365.5,-347 365.5,-347 252.5,-347 252.5,-347 246.5,-347 240.5,-341 240.5,-335 240.5,-335 240.5,-253 240.5,-253 240.5,-247 246.5,-241 252.5,-241"/>
<text text-anchor="middle" x="309" y="-331.8" font-family="Times,serif" font-size="14.00">VotingResult</text>
<polyline fill="none" stroke="black" points="240.5,-324 377.5,-324 "/>
<text text-anchor="start" x="248.5" y="-308.8" font-family="Times,serif" font-size="14.00">id :INTEGER</text>
<text text-anchor="start" x="248.5" y="-293.8" font-family="Times,serif" font-size="14.00">name :varchar</text>
<text text-anchor="start" x="248.5" y="-278.8" font-family="Times,serif" font-size="14.00">not_consider :boolean</text>
<text text-anchor="start" x="248.5" y="-263.8" font-family="Times,serif" font-size="14.00">created_at :datetime</text>
<text text-anchor="start" x="248.5" y="-248.8" font-family="Times,serif" font-size="14.00">updated_at :datetime</text>
</g>
<!-- VotingResult&#45;&gt;VotingRow -->
<g id="edge3" class="edge"><title>VotingResult&#45;&gt;VotingRow</title>
<path fill="none" stroke="#3aa363" d="M321.507,-232.809C327.955,-201.779 335.852,-163.777 342.558,-131.502"/>
<ellipse fill="none" stroke="#3aa363" cx="320.646" cy="-236.955" rx="4.00001" ry="4.00001"/>
<polygon fill="#3aa363" stroke="#3aa363" points="342.564,-131.475 349.004,-122.6 343.581,-126.58 344.598,-121.684 344.598,-121.684 344.598,-121.684 343.581,-126.58 340.192,-120.769 342.564,-131.475 342.564,-131.475"/>
</g>
<!-- VotingSummary -->
<g id="node4" class="node"><title>VotingSummary</title>
<path fill="none" stroke="black" d="M161.5,-466.5C161.5,-466.5 268.5,-466.5 268.5,-466.5 274.5,-466.5 280.5,-472.5 280.5,-478.5 280.5,-478.5 280.5,-545.5 280.5,-545.5 280.5,-551.5 274.5,-557.5 268.5,-557.5 268.5,-557.5 161.5,-557.5 161.5,-557.5 155.5,-557.5 149.5,-551.5 149.5,-545.5 149.5,-545.5 149.5,-478.5 149.5,-478.5 149.5,-472.5 155.5,-466.5 161.5,-466.5"/>
<text text-anchor="middle" x="215" y="-542.3" font-family="Times,serif" font-size="14.00">VotingSummary</text>
<polyline fill="none" stroke="black" points="149.5,-534.5 280.5,-534.5 "/>
<text text-anchor="start" x="157.5" y="-519.3" font-family="Times,serif" font-size="14.00">id :INTEGER</text>
<text text-anchor="start" x="157.5" y="-504.3" font-family="Times,serif" font-size="14.00">name :varchar</text>
<text text-anchor="start" x="157.5" y="-489.3" font-family="Times,serif" font-size="14.00">created_at :datetime</text>
<text text-anchor="start" x="157.5" y="-474.3" font-family="Times,serif" font-size="14.00">updated_at :datetime</text>
</g>
<!-- VotingSummary&#45;&gt;Voting -->
<g id="edge5" class="edge"><title>VotingSummary&#45;&gt;Voting</title>
<path fill="none" stroke="#a42c63" d="M195.792,-458.483C193.568,-452.4 191.225,-445.995 188.807,-439.385"/>
<ellipse fill="none" stroke="#a42c63" cx="197.257" cy="-462.488" rx="4.00001" ry="4.00001"/>
<polygon fill="#a42c63" stroke="#a42c63" points="188.651,-438.957 189.442,-428.02 186.934,-434.262 185.216,-429.566 185.216,-429.566 185.216,-429.566 186.934,-434.262 180.99,-431.111 188.651,-438.957 188.651,-438.957"/>
</g>
<!-- Deputy -->
<g id="node5" class="node"><title>Deputy</title>
<path fill="none" stroke="black" d="M349.5,-466.5C349.5,-466.5 456.5,-466.5 456.5,-466.5 462.5,-466.5 468.5,-472.5 468.5,-478.5 468.5,-478.5 468.5,-545.5 468.5,-545.5 468.5,-551.5 462.5,-557.5 456.5,-557.5 456.5,-557.5 349.5,-557.5 349.5,-557.5 343.5,-557.5 337.5,-551.5 337.5,-545.5 337.5,-545.5 337.5,-478.5 337.5,-478.5 337.5,-472.5 343.5,-466.5 349.5,-466.5"/>
<text text-anchor="middle" x="403" y="-542.3" font-family="Times,serif" font-size="14.00">Deputy</text>
<polyline fill="none" stroke="black" points="337.5,-534.5 468.5,-534.5 "/>
<text text-anchor="start" x="345.5" y="-519.3" font-family="Times,serif" font-size="14.00">id :INTEGER</text>
<text text-anchor="start" x="345.5" y="-504.3" font-family="Times,serif" font-size="14.00">name :varchar</text>
<text text-anchor="start" x="345.5" y="-489.3" font-family="Times,serif" font-size="14.00">created_at :datetime</text>
<text text-anchor="start" x="345.5" y="-474.3" font-family="Times,serif" font-size="14.00">updated_at :datetime</text>
</g>
<!-- Deputy&#45;&gt;VotingRow -->
<g id="edge7" class="edge"><title>Deputy&#45;&gt;VotingRow</title>
<path fill="none" stroke="#31a4ac" d="M404.465,-458.134C405.477,-388.72 404.158,-263.309 386,-158 384.506,-149.336 382.473,-140.355 380.172,-131.519"/>
<ellipse fill="none" stroke="#31a4ac" cx="404.397" cy="-462.318" rx="4" ry="4"/>
<polygon fill="#31a4ac" stroke="#31a4ac" points="380.106,-131.277 381.816,-120.445 378.79,-126.453 377.475,-121.629 377.475,-121.629 377.475,-121.629 378.79,-126.453 373.133,-122.813 380.106,-131.277 380.106,-131.277"/>
</g>
<!-- ApplicationRecord -->
<g id="node6" class="node"><title>ApplicationRecord</title>
<ellipse fill="none" stroke="black" cx="309" cy="-633" rx="77.1866" ry="18"/>
<text text-anchor="middle" x="309" y="-629.3" font-family="Times,serif" font-size="14.00">ApplicationRecord</text>
</g>
<!-- ApplicationRecord&#45;&gt;Voting -->
<g id="edge2" class="edge"><title>ApplicationRecord&#45;&gt;Voting</title>
<path fill="none" stroke="black" d="M274.708,-616.784C258.965,-609.815 240.046,-601.463 223,-594 186.166,-577.874 162.317,-591.448 140,-558 115.226,-520.869 108.787,-473.748 110.295,-429.681"/>
</g>
<!-- ApplicationRecord&#45;&gt;VotingResult -->
<g id="edge4" class="edge"><title>ApplicationRecord&#45;&gt;VotingResult</title>
<path fill="none" stroke="black" d="M309,-614.825C309,-565.935 309,-424.562 309,-347.164"/>
</g>
<!-- ApplicationRecord&#45;&gt;VotingSummary -->
<g id="edge6" class="edge"><title>ApplicationRecord&#45;&gt;VotingSummary</title>
<path fill="none" stroke="black" d="M295.731,-615.203C283.94,-600.275 266.161,-577.768 250.287,-557.672"/>
</g>
<!-- ApplicationRecord&#45;&gt;Deputy -->
<g id="edge8" class="edge"><title>ApplicationRecord&#45;&gt;Deputy</title>
<path fill="none" stroke="black" d="M322.269,-615.203C334.06,-600.275 351.839,-577.768 367.713,-557.672"/>
</g>
<!-- ApplicationRecord&#45;&gt;VotingRow -->
<g id="edge9" class="edge"><title>ApplicationRecord&#45;&gt;VotingRow</title>
<path fill="none" stroke="black" d="M370.782,-622.079C408.397,-612.508 453.582,-593.904 477,-558 567.145,-419.791 462.604,-220.147 398.946,-121.617"/>
</g>
</g>
</svg>
