<?xml version="1.0" encoding="UTF-8" standalone="no"?>
<!DOCTYPE svg PUBLIC "-//W3C//DTD SVG 1.1//EN"
 "http://www.w3.org/Graphics/SVG/1.1/DTD/svg11.dtd">
<!-- Generated by graphviz version 2.38.0 (20140413.2041)
 -->
<!-- Title: models_diagram Pages: 1 -->
<svg width="434pt" height="302pt"
 viewBox="0.00 0.00 434.03 302.00" xmlns="http://www.w3.org/2000/svg" xmlns:xlink="http://www.w3.org/1999/xlink">
<g id="graph0" class="graph" transform="scale(1 1) rotate(0) translate(4 298)">
<title>models_diagram</title>
<polygon fill="none" stroke="none" points="-4,4 -4,-298 430.032,-298 430.032,4 -4,4"/>
<!-- _diagram_info -->
<g id="node1" class="node"><title>_diagram_info</title>
<text text-anchor="start" x="8" y="-279.6" font-family="Times,serif" font-size="13.00">Models diagram</text>
<text text-anchor="start" x="8" y="-265.6" font-family="Times,serif" font-size="13.00">Date: May 05 2017 &#45; 01:37</text>
<text text-anchor="start" x="8" y="-251.6" font-family="Times,serif" font-size="13.00">Migration version: 20170503161151</text>
<text text-anchor="start" x="8" y="-237.6" font-family="Times,serif" font-size="13.00">Generated by RailRoady 1.5.2</text>
<text text-anchor="start" x="8" y="-223.6" font-family="Times,serif" font-size="13.00">http://railroady.prestonlee.com</text>
</g>
<!-- Voting -->
<g id="node2" class="node"><title>Voting</title>
<ellipse fill="none" stroke="black" cx="198" cy="-90" rx="35.194" ry="18"/>
<text text-anchor="middle" x="198" y="-86.3" font-family="Times,serif" font-size="14.00">Voting</text>
</g>
<!-- VotingRow -->
<g id="node7" class="node"><title>VotingRow</title>
<ellipse fill="none" stroke="black" cx="352" cy="-18" rx="51.9908" ry="18"/>
<text text-anchor="middle" x="352" y="-14.3" font-family="Times,serif" font-size="14.00">VotingRow</text>
</g>
<!-- Voting&#45;&gt;VotingRow -->
<g id="edge1" class="edge"><title>Voting&#45;&gt;VotingRow</title>
<path fill="none" stroke="#f03027" d="M230.718,-74.1282C254.602,-63.2719 287.097,-48.5015 312.44,-36.9819"/>
<ellipse fill="none" stroke="#f03027" cx="227.071" cy="-75.7857" rx="4.00002" ry="4.00002"/>
<polygon fill="#f03027" stroke="#f03027" points="312.666,-36.8791 323.632,-36.8377 317.218,-34.8101 321.77,-32.741 321.77,-32.741 321.77,-32.741 317.218,-34.8101 319.908,-28.6444 312.666,-36.8791 312.666,-36.8791"/>
</g>
<!-- VotingResult -->
<g id="node3" class="node"><title>VotingResult</title>
<ellipse fill="none" stroke="black" cx="309" cy="-90" rx="57.6901" ry="18"/>
<text text-anchor="middle" x="309" y="-86.3" font-family="Times,serif" font-size="14.00">VotingResult</text>
</g>
<!-- VotingResult&#45;&gt;VotingRow -->
<g id="edge3" class="edge"><title>VotingResult&#45;&gt;VotingRow</title>
<path fill="none" stroke="#38b99c" d="M323.744,-64.9976C327.805,-58.3871 332.224,-51.1939 336.335,-44.502"/>
<ellipse fill="none" stroke="#38b99c" cx="321.503" cy="-68.6466" rx="4.00002" ry="4.00002"/>
<polygon fill="#38b99c" stroke="#38b99c" points="336.453,-44.3098 345.521,-38.1444 339.07,-40.0494 341.687,-35.789 341.687,-35.789 341.687,-35.789 339.07,-40.0494 337.852,-33.4336 336.453,-44.3098 336.453,-44.3098"/>
</g>
<!-- VotingSummary -->
<g id="node4" class="node"><title>VotingSummary</title>
<ellipse fill="none" stroke="black" cx="211" cy="-162" rx="70.3881" ry="18"/>
<text text-anchor="middle" x="211" y="-158.3" font-family="Times,serif" font-size="14.00">VotingSummary</text>
</g>
<!-- VotingSummary&#45;&gt;Voting -->
<g id="edge5" class="edge"><title>VotingSummary&#45;&gt;Voting</title>
<path fill="none" stroke="#8b4b4c" d="M206.29,-135.64C205.228,-129.92 204.097,-123.828 203.022,-118.042"/>
<ellipse fill="none" stroke="#8b4b4c" cx="207.056" cy="-139.764" rx="4.00001" ry="4.00001"/>
<polygon fill="#8b4b4c" stroke="#8b4b4c" points="203.003,-117.936 205.601,-107.283 202.09,-113.02 201.177,-108.104 201.177,-108.104 201.177,-108.104 202.09,-113.02 196.752,-108.926 203.003,-117.936 203.003,-117.936"/>
</g>
<!-- Deputy -->
<g id="node5" class="node"><title>Deputy</title>
<ellipse fill="none" stroke="black" cx="373" cy="-162" rx="36.2938" ry="18"/>
<text text-anchor="middle" x="373" y="-158.3" font-family="Times,serif" font-size="14.00">Deputy</text>
</g>
<!-- Deputy&#45;&gt;VotingRow -->
<g id="edge7" class="edge"><title>Deputy&#45;&gt;VotingRow</title>
<path fill="none" stroke="#4d9516" d="M377.099,-135.802C379.24,-117.818 380.57,-93.1687 376,-72 374.039,-62.9165 370.388,-53.5168 366.515,-45.2013"/>
<ellipse fill="none" stroke="#4d9516" cx="376.531" cy="-140.084" rx="4.00001" ry="4.00001"/>
<polygon fill="#4d9516" stroke="#4d9516" points="366.404,-44.9771 365.984,-34.0192 364.179,-40.4993 361.954,-36.0215 361.954,-36.0215 361.954,-36.0215 364.179,-40.4993 357.924,-38.0238 366.404,-44.9771 366.404,-44.9771"/>
</g>
<!-- ApplicationRecord -->
<g id="node6" class="node"><title>ApplicationRecord</title>
<ellipse fill="none" stroke="black" cx="309" cy="-255" rx="77.1866" ry="18"/>
<text text-anchor="middle" x="309" y="-251.3" font-family="Times,serif" font-size="14.00">ApplicationRecord</text>
</g>
<!-- ApplicationRecord&#45;&gt;Voting -->
<g id="edge2" class="edge"><title>ApplicationRecord&#45;&gt;Voting</title>
<path fill="none" stroke="black" d="M275.231,-238.711C259.429,-231.652 240.316,-223.248 223,-216 182.878,-199.207 156.452,-215.97 132,-180 123.005,-166.768 125.082,-158.427 132,-144 140.641,-125.979 158.728,-112.147 173.786,-103.14"/>
</g>
<!-- ApplicationRecord&#45;&gt;VotingResult -->
<g id="edge4" class="edge"><title>ApplicationRecord&#45;&gt;VotingResult</title>
<path fill="none" stroke="black" d="M309,-236.864C309,-205.64 309,-139.812 309,-108.397"/>
</g>
<!-- ApplicationRecord&#45;&gt;VotingSummary -->
<g id="edge6" class="edge"><title>ApplicationRecord&#45;&gt;VotingSummary</title>
<path fill="none" stroke="black" d="M291.025,-237.309C273.343,-220.89 246.504,-195.968 228.861,-179.585"/>
</g>
<!-- ApplicationRecord&#45;&gt;Deputy -->
<g id="edge8" class="edge"><title>ApplicationRecord&#45;&gt;Deputy</title>
<path fill="none" stroke="black" d="M321.038,-236.884C332.697,-220.305 350.244,-195.357 361.661,-179.123"/>
</g>
<!-- ApplicationRecord&#45;&gt;VotingRow -->
<g id="edge9" class="edge"><title>ApplicationRecord&#45;&gt;VotingRow</title>
<path fill="none" stroke="black" d="M347.436,-239.234C372.482,-227.356 403.17,-207.993 418,-180 444.87,-129.281 395.499,-65.1625 368.256,-35.4724"/>
</g>
</g>
</svg>
